<svg aria-hidden="true" style="position: absolute; width: 0; height: 0; overflow: hidden;" version="1.1" xmlns="http://www.w3.org/2000/svg" xmlns:xlink="http://www.w3.org/1999/xlink">
<defs>
<symbol id="icon-arrow-right" viewBox="0 0 34 32">
<path d="M19.99 0.795c-0.461 0.462-0.721 1.088-0.721 1.74s0.259 1.279 0.721 1.74l8.103 8.106-25.632 0.017c-0.653 0-1.279 0.259-1.741 0.721s-0.721 1.088-0.721 1.741c0 0.653 0.259 1.279 0.721 1.741s1.088 0.721 1.741 0.721l25.634-0.017-8.106 8.106c-0.235 0.227-0.423 0.499-0.552 0.799s-0.197 0.623-0.2 0.95c-0.003 0.327 0.059 0.651 0.183 0.954s0.307 0.577 0.538 0.808c0.231 0.231 0.506 0.414 0.808 0.538s0.627 0.186 0.953 0.183c0.327-0.003 0.65-0.071 0.95-0.2s0.572-0.317 0.799-0.552l8.827-8.825c0.686-0.686 1.23-1.5 1.601-2.396s0.562-1.856 0.562-2.826-0.191-1.93-0.562-2.826c-0.371-0.896-0.915-1.71-1.601-2.396l-8.827-8.827c-0.462-0.461-1.088-0.721-1.74-0.721s-1.279 0.259-1.74 0.721z"></path>
</symbol>
</defs>
</svg>
