<svg aria-hidden="true" style="position: absolute; width: 0; height: 0; overflow: hidden;"
    version="1.1" xmlns="http://www.w3.org/2000/svg" xmlns:xlink="http://www.w3.org/1999/xlink">
    <defs>
        <symbol id="icon-shop" viewBox="0 0 31 32">
            <path
                d="M29.629 25.77h-3.4v-9.757c0.3-0.062 0.584-0.188 0.83-0.37s0.451-0.416 0.598-0.685c0.147-0.269 0.234-0.567 0.254-0.873s-0.026-0.613-0.136-0.899l-1.546-4.020v-7.681c0-0.064-0.013-0.127-0.037-0.186s-0.060-0.113-0.105-0.158c-0.045-0.045-0.099-0.081-0.158-0.105s-0.122-0.037-0.186-0.037h-20.4c-0.064-0-0.127 0.013-0.186 0.037s-0.112 0.060-0.158 0.105c-0.045 0.045-0.081 0.099-0.105 0.158s-0.037 0.122-0.037 0.186v7.681l-1.546 4.020c-0.11 0.286-0.157 0.593-0.136 0.899s0.107 0.604 0.254 0.873 0.351 0.503 0.598 0.685c0.247 0.182 0.53 0.309 0.83 0.37v9.757h-3.4c-0.064 0-0.127 0.013-0.186 0.037s-0.113 0.060-0.158 0.105c-0.045 0.045-0.081 0.099-0.105 0.158s-0.037 0.122-0.037 0.186v3.4c-0 0.064 0.013 0.127 0.037 0.186s0.060 0.112 0.105 0.158c0.045 0.045 0.099 0.081 0.158 0.105s0.122 0.037 0.186 0.037h28.171c0.064 0 0.127-0.013 0.186-0.037s0.112-0.060 0.158-0.105c0.045-0.045 0.081-0.099 0.105-0.158s0.037-0.122 0.037-0.186v-3.4c0-0.064-0.013-0.127-0.037-0.186s-0.060-0.113-0.105-0.158c-0.045-0.045-0.099-0.081-0.158-0.105s-0.122-0.037-0.186-0.037zM24.286 25.77v-10.36c0.266 0.276 0.602 0.473 0.971 0.573v9.787h-0.971zM20.4 26.256v2.914h-1.943v-3.4h0.971c0.129 0 0.252-0.051 0.343-0.142s0.142-0.215 0.142-0.343v-1.457c0-0.129-0.051-0.252-0.142-0.343s-0.215-0.142-0.343-0.142h-2.914c-0.129 0-0.252 0.051-0.343 0.142s-0.142 0.215-0.142 0.343v1.457c0 0.129 0.051 0.252 0.142 0.343s0.215 0.142 0.343 0.142h0.971v3.4h-1.943v-2.914c0-0.064-0.013-0.127-0.037-0.186s-0.060-0.113-0.105-0.158c-0.045-0.045-0.099-0.081-0.158-0.105s-0.122-0.037-0.186-0.037h-0.972v-1.457c0-0.064-0.013-0.127-0.037-0.186s-0.060-0.113-0.105-0.158-0.099-0.081-0.158-0.105c-0.059-0.024-0.122-0.037-0.186-0.037h-0.971v-7.816c0.471-0.098 0.894-0.353 1.2-0.724 0.030 0.037 0.061 0.073 0.095 0.108 0.197 0.209 0.434 0.376 0.698 0.49s0.548 0.172 0.836 0.17h0.171c0.287 0.001 0.572-0.057 0.836-0.17s0.502-0.28 0.698-0.49c0.033-0.035 0.065-0.071 0.095-0.108 0.070 0.085 0.147 0.164 0.229 0.236v1.503c-0.644 0.001-1.261 0.257-1.717 0.712s-0.711 1.073-0.712 1.717c0 0.064 0.013 0.127 0.037 0.186s0.060 0.112 0.105 0.158c0.045 0.045 0.099 0.081 0.158 0.105s0.122 0.037 0.186 0.037h4.857c0.064 0 0.127-0.013 0.186-0.037s0.113-0.060 0.158-0.105c0.045-0.045 0.081-0.099 0.105-0.158s0.037-0.122 0.037-0.186c-0.001-0.644-0.257-1.261-0.712-1.717s-1.073-0.711-1.717-0.712v-1.016c0.141 0.030 0.285 0.044 0.429 0.044h0.152c0.307 0 0.609-0.066 0.888-0.195s0.525-0.317 0.723-0.55c0.013-0.015 0.025-0.030 0.036-0.045 0.198 0.248 0.449 0.447 0.735 0.584s0.599 0.207 0.915 0.206h0.094c0.305 0.001 0.607-0.065 0.885-0.192v7.963h-0.971c-0.064 0-0.127 0.013-0.186 0.037s-0.113 0.060-0.158 0.105-0.081 0.099-0.105 0.158c-0.024 0.059-0.037 0.122-0.037 0.186v1.457h-0.971c-0.064 0-0.127 0.013-0.186 0.037s-0.112 0.060-0.158 0.105c-0.045 0.045-0.081 0.099-0.105 0.158s-0.037 0.122-0.037 0.186zM17 24.799v-0.486h1.943v0.486h-1.943zM7.555 13.644l1.072-3.902h1.971l-0.723 4.388c-0.043 0.267-0.18 0.51-0.387 0.685s-0.468 0.271-0.739 0.27h-0.094c-0.175 0-0.348-0.040-0.506-0.118s-0.294-0.191-0.401-0.33-0.179-0.301-0.213-0.473c-0.034-0.172-0.027-0.35 0.019-0.519zM7.771 15.864c0.278 0.127 0.579 0.192 0.885 0.192h0.094c0.317 0.001 0.63-0.070 0.915-0.206s0.537-0.337 0.735-0.584c0.012 0.015 0.024 0.030 0.036 0.045 0.313 0.37 0.744 0.62 1.22 0.709v2.465h-3.886v-2.62zM12.048 15.084c-0.166 0-0.329-0.036-0.479-0.105s-0.284-0.171-0.391-0.297c-0.107-0.126-0.185-0.274-0.23-0.434s-0.053-0.327-0.026-0.49l0.662-4.016h1.989l-0.234 4.265c-0.016 0.291-0.143 0.565-0.355 0.766s-0.492 0.312-0.784 0.312h-0.152zM16.457 14.728c-0.106 0.113-0.235 0.203-0.377 0.264s-0.296 0.093-0.451 0.092h-0.171c-0.155 0-0.308-0.032-0.45-0.093s-0.271-0.151-0.377-0.263c-0.107-0.112-0.189-0.245-0.243-0.39s-0.077-0.3-0.069-0.454l0.227-4.143h1.995l0.227 4.14v0.003c0.009 0.154-0.014 0.309-0.068 0.454s-0.136 0.278-0.243 0.39zM17.747 14.006l-0.234-4.265h1.989l0.662 4.016c0.027 0.163 0.018 0.331-0.026 0.49s-0.122 0.308-0.23 0.434c-0.107 0.126-0.24 0.228-0.391 0.297s-0.314 0.105-0.479 0.105h-0.152c-0.292 0-0.572-0.112-0.784-0.312s-0.339-0.475-0.355-0.766v0zM18.457 17.999c0.301 0 0.595 0.094 0.841 0.268s0.432 0.42 0.533 0.704h-3.719c0.101-0.284 0.287-0.53 0.533-0.704s0.54-0.268 0.841-0.268h0.971zM23.337 14.635c-0.106 0.14-0.243 0.254-0.401 0.332s-0.331 0.118-0.506 0.118h-0.094c-0.271 0.001-0.533-0.095-0.739-0.27s-0.343-0.418-0.387-0.685l-0.723-4.388h1.971l1.072 3.9c0 0.001 0.001 0.002 0.001 0.002 0.047 0.169 0.053 0.347 0.020 0.518s-0.107 0.334-0.213 0.473zM22.829 24.799h0.486v0.971h-0.486v-0.971zM26.868 13.534c0.066 0.173 0.090 0.359 0.068 0.543s-0.088 0.36-0.193 0.512c-0.105 0.153-0.245 0.277-0.409 0.364s-0.346 0.131-0.531 0.131c-0.25-0.001-0.492-0.083-0.691-0.234s-0.342-0.364-0.409-0.604l-1.237-4.504h1.944l1.458 3.792zM5.829 1.97h19.429v6.8h-19.429v-6.8zM4.342 14.59c-0.106-0.152-0.173-0.328-0.195-0.512s0.002-0.371 0.070-0.544l1.458-3.792h1.944l-1.237 4.504c-0.067 0.241-0.21 0.453-0.409 0.604s-0.441 0.234-0.691 0.234c-0.185 0.001-0.368-0.043-0.532-0.129s-0.304-0.212-0.408-0.365zM5.829 15.983c0.37-0.099 0.706-0.297 0.971-0.573v10.36h-0.971v-9.787zM9.714 29.17h-7.771v-2.429h7.771v2.429zM10.2 25.77h-2.429v-6.314h3.886v9.714h-0.971v-2.914c0-0.064-0.013-0.127-0.037-0.186s-0.060-0.113-0.105-0.158c-0.045-0.045-0.099-0.081-0.158-0.105s-0.122-0.037-0.186-0.037zM12.629 24.799h0.486v1.457c-0 0.064 0.013 0.127 0.037 0.186s0.060 0.112 0.105 0.158c0.045 0.045 0.099 0.081 0.158 0.105s0.122 0.037 0.186 0.037h0.971v2.429h-1.943v-4.371zM29.143 29.17h-7.771v-2.429h7.771v2.429z"></path>
            <path
                d="M18.943 5.856h-0.527c-0.102-0.596-0.386-1.146-0.814-1.574s-0.977-0.712-1.574-0.814v-0.527c0-0.129-0.051-0.252-0.142-0.343s-0.215-0.142-0.344-0.142-0.252 0.051-0.344 0.142c-0.091 0.091-0.142 0.215-0.142 0.343v0.527c-0.596 0.102-1.146 0.386-1.574 0.814s-0.712 0.977-0.814 1.574h-0.527c-0.129 0-0.252 0.051-0.343 0.142s-0.142 0.215-0.142 0.343c0.001 0.515 0.205 1.009 0.57 1.373s0.858 0.569 1.373 0.57h3.886c0.515-0.001 1.009-0.205 1.373-0.57s0.569-0.858 0.57-1.373c0-0.129-0.051-0.252-0.142-0.343s-0.215-0.142-0.343-0.142zM15.543 4.399c0.431 0.001 0.849 0.144 1.189 0.408s0.584 0.633 0.692 1.050h-3.763c0.108-0.417 0.352-0.786 0.692-1.050s0.759-0.407 1.189-0.408zM17.486 7.313h-3.886c-0.171-0-0.338-0.045-0.486-0.13s-0.27-0.208-0.355-0.355h5.568c-0.085 0.148-0.208 0.27-0.355 0.355s-0.315 0.13-0.486 0.13z"></path>
            <path
                d="M11.927 4.803c0.066-0.044 0.121-0.104 0.159-0.175s0.057-0.149 0.057-0.229v-1.457h-0.971v1.18c-0.154 0.079-0.317 0.138-0.486 0.178v-1.357h-0.971v1.357c-0.168-0.039-0.332-0.099-0.486-0.178v-1.18h-0.971v1.457c0 0.080 0.020 0.159 0.057 0.229s0.092 0.131 0.159 0.175c0.374 0.25 0.797 0.415 1.241 0.486v2.996h0.971v-2.996c0.444-0.070 0.867-0.236 1.241-0.486z"></path>
            <path
                d="M20.886 2.456c-0.473 0-0.929 0.173-1.284 0.485s-0.584 0.744-0.643 1.213c-0.060 0.469 0.054 0.944 0.319 1.335s0.664 0.673 1.122 0.791v2.004h0.971v-2.004c0.458-0.118 0.857-0.399 1.122-0.791s0.379-0.866 0.319-1.335c-0.060-0.469-0.288-0.9-0.643-1.213s-0.811-0.485-1.284-0.485zM20.886 5.37c-0.192 0-0.38-0.057-0.54-0.164s-0.284-0.258-0.358-0.436-0.093-0.373-0.055-0.561c0.037-0.188 0.13-0.362 0.266-0.497s0.309-0.228 0.497-0.266c0.188-0.038 0.384-0.018 0.561 0.055s0.329 0.198 0.436 0.358c0.107 0.16 0.164 0.348 0.164 0.54-0 0.258-0.103 0.504-0.285 0.687s-0.429 0.285-0.687 0.285z"></path>
        </symbol>
        <symbol id="icon-arrow-left" viewBox="0 0 19 32">
            <path
                d="M13.805 30.449l-13.046-13.046c-1.012-1.018-1.012-2.661 0-3.679l13.046-13.046c0.976-0.838 2.419-0.838 3.394 0 1.093 0.937 1.221 2.586 0.284 3.679l-11.193 11.193 11.193 11.219c1.012 1.018 1.012 2.661 0 3.679-1.018 1.012-2.661 1.012-3.679 0z"></path>
        </symbol>
        <symbol id="icon-arrow-left2" viewBox="0 0 19 32">
            <path
                d="M0.364 16.17l15.17 13.825c0.498 0.495 1.305 0.495 1.803 0s0.498-1.299 0-1.794l-14.256-12.992 14.254-12.992c0.498-0.495 0.498-1.299 0-1.794s-1.305-0.495-1.803 0l-15.171 13.825c-0.265 0.264-0.379 0.614-0.361 0.96-0.017 0.347 0.097 0.697 0.363 0.963z"></path>
        </symbol>
        <symbol id="icon-arrow-righ2" viewBox="0 0 19 32">
            <path
                d="M17.347 16.17l-15.171 13.825c-0.498 0.495-1.305 0.495-1.803 0s-0.498-1.299 0-1.794l14.256-12.992-14.255-12.992c-0.498-0.495-0.498-1.299 0-1.794s1.305-0.495 1.803 0l15.17 13.825c0.265 0.264 0.379 0.614 0.361 0.96 0.017 0.347-0.097 0.697-0.363 0.963z"></path>
        </symbol>
        <symbol id="icon-arrow-right" viewBox="0 0 19 32">
            <path
                d="M4.721 30.449l13.046-13.046c1.012-1.018 1.012-2.661 0-3.679l-13.046-13.046c-0.976-0.838-2.419-0.838-3.394 0-1.093 0.937-1.221 2.586-0.284 3.679l11.193 11.193-11.193 11.219c-1.012 1.018-1.012 2.661 0 3.679 1.018 1.012 2.661 1.012 3.679 0z"></path>
        </symbol>
        <symbol id="icon-arrow-right1" viewBox="0 0 34 32">
            <path
                d="M19.99 0.795c-0.461 0.462-0.721 1.088-0.721 1.74s0.259 1.279 0.721 1.74l8.103 8.106-25.632 0.017c-0.653 0-1.279 0.259-1.741 0.721s-0.721 1.088-0.721 1.741c0 0.653 0.259 1.279 0.721 1.741s1.088 0.721 1.741 0.721l25.634-0.017-8.106 8.106c-0.235 0.227-0.423 0.499-0.552 0.799s-0.197 0.623-0.2 0.95c-0.003 0.327 0.059 0.651 0.183 0.954s0.307 0.577 0.538 0.808c0.231 0.231 0.506 0.414 0.808 0.538s0.627 0.186 0.953 0.183c0.327-0.003 0.65-0.071 0.95-0.2s0.572-0.317 0.799-0.552l8.827-8.825c0.686-0.686 1.23-1.5 1.601-2.396s0.562-1.856 0.562-2.826-0.191-1.93-0.562-2.826c-0.371-0.896-0.915-1.71-1.601-2.396l-8.827-8.827c-0.462-0.461-1.088-0.721-1.74-0.721s-1.279 0.259-1.74 0.721z"></path>
        </symbol>
        <symbol id="icon-burger" viewBox="0 0 31 32">
            <path
                d="M31.289 14.482c0-1.201-0.775-2.224-1.85-2.598-0.165-3.727-1.557-6.587-4.142-8.509-2.36-1.754-5.607-2.643-9.652-2.643s-7.292 0.889-9.652 2.643c-2.586 1.922-3.977 4.782-4.142 8.509-1.076 0.374-1.85 1.397-1.85 2.598 0 0.704 0.266 1.346 0.702 1.833-0.436 0.487-0.702 1.13-0.702 1.833 0 1.209 0.784 2.237 1.87 2.605 0.393 4.189 3.954 7.479 8.274 7.479h11c4.321 0 7.881-3.29 8.274-7.479 1.086-0.368 1.87-1.396 1.87-2.605 0-0.704-0.266-1.346-0.703-1.833 0.436-0.487 0.703-1.129 0.703-1.833zM15.644 2.566c5.257 0 11.485 1.621 11.949 9.167h-23.898c0.464-7.546 6.692-9.167 11.949-9.167zM2.75 13.566h25.789c0.505 0 0.917 0.411 0.917 0.917s-0.411 0.917-0.917 0.917h-25.789c-0.505 0-0.917-0.411-0.917-0.917s0.411-0.917 0.917-0.917zM21.144 26.399h-11c-3.258 0-5.961-2.395-6.411-5.5h0.85c0.613 0 0.806 0.208 1.192 0.624 0.474 0.51 1.123 1.21 2.536 1.21 1.422 0 2.054-0.706 2.516-1.222 0.365-0.407 0.548-0.611 1.15-0.611s0.786 0.204 1.15 0.611c0.462 0.516 1.094 1.222 2.516 1.222s2.054-0.706 2.516-1.222c0.365-0.407 0.548-0.611 1.15-0.611s0.786 0.204 1.15 0.611c0.462 0.516 1.094 1.222 2.516 1.222s2.054-0.706 2.516-1.222c0.365-0.407 0.548-0.611 1.15-0.611h0.911c-0.45 3.105-3.154 5.5-6.411 5.5zM28.539 19.066h-1.894c-1.422 0-2.055 0.706-2.516 1.222-0.365 0.407-0.548 0.611-1.15 0.611s-0.786-0.204-1.15-0.611c-0.462-0.516-1.094-1.222-2.516-1.222s-2.054 0.706-2.516 1.222c-0.365 0.407-0.548 0.611-1.15 0.611s-0.786-0.204-1.15-0.611c-0.462-0.516-1.094-1.222-2.516-1.222s-2.055 0.706-2.516 1.222c-0.365 0.407-0.548 0.611-1.15 0.611-0.613 0-0.806-0.209-1.192-0.624-0.474-0.51-1.123-1.21-2.536-1.21h-1.833c-0.505 0-0.917-0.411-0.917-0.917s0.411-0.917 0.917-0.917h25.789c0.505 0 0.917 0.411 0.917 0.917s-0.411 0.917-0.917 0.917z"></path>
            <path
                d="M10.144 9.899c0.506 0 0.917-0.41 0.917-0.917s-0.41-0.917-0.917-0.917c-0.506 0-0.917 0.41-0.917 0.917s0.41 0.917 0.917 0.917z"></path>
            <path
                d="M21.144 9.899c0.506 0 0.917-0.41 0.917-0.917s-0.41-0.917-0.917-0.917c-0.506 0-0.917 0.41-0.917 0.917s0.41 0.917 0.917 0.917z"></path>
            <path
                d="M17.478 8.066c0.506 0 0.917-0.41 0.917-0.917s-0.41-0.917-0.917-0.917c-0.506 0-0.917 0.41-0.917 0.917s0.41 0.917 0.917 0.917z"></path>
            <path
                d="M13.811 6.232c0.506 0 0.917-0.41 0.917-0.917s-0.41-0.917-0.917-0.917c-0.506 0-0.917 0.41-0.917 0.917s0.41 0.917 0.917 0.917z"></path>
        </symbol>
        <symbol id="icon-cart" viewBox="0 0 34 32">
            <path stroke-linejoin="round" stroke-linecap="round" stroke-miterlimit="4"
                stroke-width="2.4"
                d="M1.6 1.648l3.328 0.569 1.541 18.144c0.123 1.482 1.376 2.619 2.88 2.614h17.454c1.435 0.003 2.653-1.041 2.856-2.445l1.518-10.371c0.17-1.159-0.645-2.235-1.816-2.402-0.102-0.014-23.899-0.022-23.899-0.022"></path>
            <path stroke-linejoin="round" stroke-linecap="round" stroke-miterlimit="4"
                stroke-width="2.4" d="M19.8 13.58h4.437"></path>
            <path stroke-linejoin="round" stroke-linecap="round" stroke-miterlimit="4"
                stroke-width="2.4"
                d="M8.647 28.457c0.482 0 0.87 0.386 0.87 0.861 0 0.476-0.389 0.862-0.87 0.862s-0.87-0.386-0.87-0.862c0-0.475 0.389-0.861 0.87-0.861z"></path>
            <path stroke-linejoin="round" stroke-linecap="round" stroke-miterlimit="4"
                stroke-width="2.4"
                d="M26.695 28.457c0.482 0 0.872 0.386 0.872 0.861 0 0.476-0.39 0.862-0.872 0.862s-0.87-0.386-0.87-0.862c0-0.475 0.389-0.861 0.87-0.861z"></path>
        </symbol>
        <symbol id="icon-category-dish" viewBox="0 0 32 32">
            <path
                d="M22.66 10.682l-0.342-1.114c-0.435-1.265-1.825-1.942-3.105-1.513-0.72 0.242-1.286 0.801-1.53 1.513l-0.342 1.114c-0.288 0.939-0.349 1.933-0.177 2.899 0.157 0.814 0.68 1.513 1.421 1.9l-0.383 8.473c-0.051 0.473 0.104 0.945 0.427 1.298 0.694 0.75 1.873 0.803 2.632 0.117 0.041-0.037 0.080-0.076 0.118-0.117 0.316-0.343 0.471-0.801 0.427-1.263l-0.386-8.509c0.74-0.387 1.262-1.086 1.419-1.899 0.172-0.967 0.112-1.96-0.177-2.899zM21.786 13.397c-0.116 0.585-0.537 1.064-1.107 1.259-0.216 0.080-0.355 0.289-0.345 0.517l0.405 8.899c0.019 0.175-0.040 0.349-0.16 0.478-0.321 0.314-0.838 0.314-1.16 0-0.126-0.139-0.184-0.327-0.157-0.512l0.402-8.864c0.010-0.228-0.129-0.437-0.345-0.517-0.57-0.195-0.991-0.675-1.107-1.259-0.143-0.803-0.092-1.627 0.147-2.407l0.342-1.114c0.265-0.708 1.060-1.070 1.777-0.808 0.379 0.138 0.677 0.434 0.817 0.808l0.342 1.114c0.239 0.78 0.289 1.604 0.147 2.407z"></path>
            <path
                d="M14.4 7.929c-0.295 0-0.533 0.236-0.533 0.527v4.526l-1.444 1.427c-0.107 0.105-0.164 0.25-0.156 0.399l0.467 9.225c0.011 0.199-0.062 0.394-0.202 0.537-0.292 0.291-0.767 0.293-1.062 0.005-0.002-0.002-0.003-0.003-0.005-0.005-0.14-0.144-0.213-0.338-0.202-0.537l0.47-9.225c0.008-0.149-0.049-0.294-0.156-0.399l-1.444-1.427v-4.526c0-0.291-0.239-0.527-0.533-0.527s-0.533 0.236-0.533 0.527v4.744c0 0.14 0.056 0.274 0.156 0.373l1.433 1.416-0.455 8.992c-0.048 0.982 0.718 1.817 1.712 1.865s1.839-0.71 1.887-1.692c0.003-0.058 0.003-0.116 0-0.173l-0.455-8.992 1.433-1.416c0.1-0.099 0.156-0.233 0.156-0.373v-4.744c0-0.291-0.239-0.527-0.533-0.527z"></path>
            <path
                d="M11.2 7.929c-0.295 0-0.533 0.236-0.533 0.527v4.217c0 0.291 0.239 0.527 0.533 0.527s0.533-0.236 0.533-0.527v-4.217c0-0.291-0.239-0.527-0.533-0.527z"></path>
            <path
                d="M12.8 7.929c-0.295 0-0.533 0.236-0.533 0.527v4.217c0 0.291 0.239 0.527 0.533 0.527s0.533-0.236 0.533-0.527v-4.217c0-0.291-0.239-0.527-0.533-0.527z"></path>
            <path
                d="M16 0.022c-8.837 0-16 7.080-16 15.814s7.163 15.814 16 15.814 16-7.080 16-15.814c-0.010-8.73-7.168-15.804-16-15.814zM16 30.596c-8.248 0-14.933-6.608-14.933-14.76s6.686-14.76 14.933-14.76 14.933 6.608 14.933 14.76c-0.009 8.148-6.69 14.751-14.933 14.76z"></path>
            <path
                d="M17.731 25.732c-0.029-0.29-0.289-0.502-0.583-0.474-0.007 0.001-0.014 0.001-0.021 0.002l0.002-0.001c-0.751 0.086-1.509 0.086-2.26 0-0.293-0.034-0.558 0.173-0.592 0.463s0.175 0.552 0.468 0.585c0.833 0.096 1.674 0.096 2.507 0 0.293-0.028 0.508-0.286 0.479-0.576z"></path>
            <path
                d="M24.16 9.043c-0.189-0.223-0.526-0.252-0.751-0.065-0.001 0.001-0.001 0.001-0.002 0.002-0.225 0.188-0.254 0.52-0.064 0.743 3.216 3.773 2.97 9.352-0.566 12.834-0.209 0.206-0.209 0.539-0.001 0.746s0.546 0.207 0.754 0.001c3.929-3.869 4.203-10.068 0.63-14.261z"></path>
            <path d="M12.426 6.99c-0 0-0.001-0.001-0.001-0.001s-0.001 0.001-0.002 0.001h0.003z"></path>
            <path
                d="M18.516 5.588c-2.084-0.494-4.27-0.361-6.278 0.381-0.276 0.102-0.415 0.407-0.312 0.679 0.078 0.205 0.277 0.341 0.499 0.342 0.064-0 0.127-0.012 0.187-0.034 1.808-0.668 3.776-0.788 5.653-0.343 0.286 0.068 0.575-0.106 0.644-0.388s-0.107-0.568-0.393-0.636z"></path>
            <path
                d="M9.199 22.531c-1.798-1.774-2.806-4.184-2.799-6.695-0.005-2.006 0.638-3.962 1.835-5.581 0.177-0.233 0.13-0.563-0.106-0.738s-0.57-0.128-0.747 0.105c-0.003 0.004-0.006 0.008-0.009 0.012-3.084 4.19-2.63 9.974 1.070 13.644 0.209 0.206 0.547 0.206 0.755 0s0.209-0.54 0-0.747z"></path>
        </symbol>
        <symbol id="icon-check" viewBox="0 0 44 32">
            <path
                d="M15.387 30.060c-0.553 0-1.106-0.206-1.527-0.617l-13.226-12.895c-0.845-0.823-0.845-2.154 0-2.977s2.209-0.823 3.053 0l11.7 11.406 24.927-24.301c0.844-0.823 2.209-0.823 3.053 0s0.844 2.154 0 2.977l-26.453 25.789c-0.421 0.411-0.974 0.617-1.527 0.617z"></path>
        </symbol>
        <symbol id="icon-chevron" viewBox="0 0 52 32">
            <path
                d="M24.521 30.049l-23.879-26.204c-0.856-0.86-0.856-2.254 0-3.114s2.243-0.86 3.099 0l22.441 24.624 22.441-24.621c0.856-0.86 2.243-0.86 3.099 0s0.855 2.254 0 3.114l-23.88 26.204c-0.456 0.458-1.061 0.655-1.659 0.624-0.6 0.029-1.205-0.168-1.663-0.626z"></path>
        </symbol>
        <symbol id="icon-christmas-dinner" viewBox="0 0 31 32">
            <path
                d="M10.76 9.669h1.511c0.392 0 0.711 0.319 0.711 0.711v1.042c0 0.253 0.205 0.458 0.458 0.458s0.458-0.205 0.458-0.458v-1.042c0-0.898-0.73-1.628-1.628-1.628h-1.511c-0.386 0-0.699-0.314-0.699-0.699s0.314-0.699 0.699-0.699h3.35c0.891 0 1.616-0.725 1.616-1.616s-0.725-1.616-1.616-1.616h-2.68c-0.253 0-0.458 0.205-0.458 0.458s0.205 0.458 0.458 0.458h2.68c0.386 0 0.699 0.314 0.699 0.699s-0.314 0.699-0.699 0.699h-3.35c-0.891 0-1.616 0.725-1.616 1.616s0.725 1.616 1.616 1.616z"></path>
            <path
                d="M5.254 12.745h1.499c0.387 0 0.702 0.315 0.702 0.702v1.034c0 0.253 0.205 0.458 0.458 0.458s0.458-0.205 0.458-0.458v-1.034c0-0.893-0.726-1.619-1.619-1.619h-1.499c-0.381 0-0.69-0.31-0.69-0.69s0.31-0.69 0.69-0.69h1.753c0.253 0 0.458-0.205 0.458-0.458s-0.205-0.458-0.458-0.458h-1.753c-0.886 0-1.607 0.721-1.607 1.607s0.721 1.607 1.607 1.607z"></path>
            <path
                d="M18.242 19.088c0.253 0 0.458-0.205 0.458-0.458s-0.205-0.458-0.458-0.458c-0.253 0-0.458 0.205-0.458 0.458s0.205 0.458 0.458 0.458z"></path>
            <path
                d="M20.503 20.127c0.253 0 0.458-0.205 0.458-0.458s-0.205-0.458-0.458-0.458c-0.253 0-0.458 0.205-0.458 0.458s0.205 0.458 0.458 0.458z"></path>
            <path
                d="M21.847 21.716c0.253 0 0.458-0.205 0.458-0.458s-0.205-0.458-0.458-0.458c-0.253 0-0.458 0.205-0.458 0.458s0.205 0.458 0.458 0.458z"></path>
            <path
                d="M19.953 17.988c0.253 0 0.458-0.205 0.458-0.458s-0.205-0.458-0.458-0.458-0.458 0.205-0.458 0.458c0 0.253 0.205 0.458 0.458 0.458z"></path>
            <path
                d="M18.425 22.021c0.253 0 0.458-0.205 0.458-0.458s-0.205-0.458-0.458-0.458c-0.253 0-0.458 0.205-0.458 0.458s0.205 0.458 0.458 0.458z"></path>
            <path
                d="M30.515 16.242h-1.3l0.643-1.328c0.815-0.162 1.432-0.883 1.432-1.745 0-0.884-0.648-1.62-1.495-1.757-0.935-1.685-2.763-2.95-4.979-3.455v-0.035c0-0.253-0.205-0.458-0.458-0.458-0.21 0-0.386 0.141-0.441 0.333-0.279-0.036-0.563-0.059-0.851-0.071-0.073-0.155-0.231-0.262-0.414-0.262s-0.34 0.107-0.414 0.262c-0.288 0.012-0.572 0.035-0.851 0.071-0.054-0.192-0.231-0.334-0.441-0.334-0.253 0-0.458 0.205-0.458 0.458v0.035c-2.216 0.505-4.043 1.77-4.979 3.455-0.846 0.137-1.495 0.872-1.495 1.757 0 0.052 0.002 0.103 0.007 0.153-2.116 0.197-4.017 1.081-5.444 2.407h-2.88c-0.196 0-0.372 0.088-0.491 0.226h-1.346c-0.22-0.557-0.768-0.951-1.392-0.951-0.825 0-1.496 0.671-1.496 1.496 0 0.070 0.006 0.14 0.015 0.209-0.576 0.208-0.989 0.76-0.989 1.407 0 0.287 0.082 0.563 0.231 0.8-0.15 0.236-0.231 0.513-0.231 0.8 0 0.825 0.671 1.496 1.496 1.496 0.624 0 1.171-0.394 1.392-0.951h1.212c0.056 0.204 0.209 0.373 0.416 0.443l1.437 0.488c-0.009 0.148-0.013 0.297-0.013 0.447 0 0.141 0.004 0.282 0.012 0.422-0.225 0.054-0.434 0.147-0.621 0.272-0.307-0.206-0.676-0.327-1.073-0.327-1.066 0-1.933 0.867-1.933 1.933 0 0.016 0.001 0.032 0.002 0.049h-0.536c-0.303 0-0.571 0.17-0.7 0.444s-0.090 0.589 0.102 0.822l1.375 1.671c0.148 0.179 0.365 0.282 0.598 0.282h19.385c0.253 0 0.458-0.205 0.458-0.458s-0.205-0.458-0.458-0.458h-19.318l-1.14-1.386h28.12l-1.14 1.386h-4.383c-0.253 0-0.458 0.205-0.458 0.458s0.205 0.458 0.458 0.458h4.45c0.232 0 0.45-0.103 0.598-0.282l1.375-1.671c0.192-0.234 0.231-0.549 0.102-0.822s-0.397-0.444-0.7-0.444h-0.454c0.45-0.779 0.62-1.703 0.455-2.611-0.034-0.188-0.181-0.335-0.369-0.369-1.242-0.225-2.514 0.173-3.405 1.063-0.054 0.054-0.106 0.111-0.157 0.168-0.263-0.142-0.562-0.225-0.88-0.231v-0.872h0.489c0.775 0 1.406-0.631 1.406-1.406v-0.615h2.915c0.427 0 0.774-0.347 0.774-0.774v-1.326c0-0.427-0.347-0.774-0.774-0.774zM4.473 23.99h-1.231c-0.001-0.016-0.002-0.032-0.002-0.049 0-0.56 0.456-1.016 1.016-1.016 0.159 0 0.31 0.037 0.444 0.103-0.146 0.272-0.23 0.583-0.23 0.913 0 0.016 0.001 0.032 0.002 0.049zM27.389 22.721c0.6-0.599 1.427-0.905 2.264-0.85 0.051 0.772-0.205 1.535-0.715 2.119h-0.756l0.626-0.626c0.179-0.179 0.179-0.469 0-0.648s-0.469-0.179-0.648 0l-0.649 0.649c-0.057-0.183-0.141-0.355-0.247-0.51 0.040-0.046 0.082-0.091 0.125-0.134zM18.136 9.936c0.694-0.465 1.495-0.813 2.353-1.033v0.472c0 0.253 0.205 0.458 0.458 0.458s0.458-0.205 0.458-0.458v-0.653c0.26-0.037 0.523-0.061 0.788-0.075v0.728c0 0.253 0.205 0.458 0.458 0.458s0.458-0.205 0.458-0.458v-0.728c0.265 0.014 0.529 0.038 0.788 0.075v0.653c0 0.253 0.205 0.458 0.458 0.458s0.458-0.205 0.458-0.458v-0.472c0.858 0.219 1.659 0.568 2.353 1.033 0.676 0.453 1.226 1 1.628 1.604-0.155 0.068-0.3 0.158-0.43 0.267-0.316-0.265-0.72-0.418-1.143-0.418s-0.827 0.152-1.143 0.418c-0.316-0.265-0.72-0.418-1.143-0.418s-0.827 0.152-1.143 0.418c-0.316-0.265-0.72-0.418-1.143-0.418s-0.827 0.152-1.143 0.418c-0.316-0.265-0.72-0.418-1.143-0.418s-0.827 0.152-1.143 0.418c-0.316-0.265-0.72-0.418-1.143-0.418s-0.827 0.152-1.143 0.418c-0.13-0.109-0.275-0.199-0.43-0.267 0.401-0.605 0.952-1.152 1.628-1.604zM15.795 12.306c0.306 0 0.592 0.165 0.746 0.432 0.082 0.141 0.233 0.228 0.396 0.228s0.314-0.087 0.396-0.228c0.154-0.266 0.44-0.432 0.746-0.432s0.592 0.165 0.746 0.432c0.082 0.141 0.233 0.228 0.396 0.228s0.314-0.087 0.396-0.228c0.154-0.266 0.44-0.432 0.746-0.432s0.592 0.165 0.746 0.432c0.082 0.141 0.233 0.228 0.396 0.228s0.315-0.087 0.396-0.228c0.154-0.266 0.44-0.432 0.746-0.432s0.592 0.165 0.746 0.432c0.082 0.141 0.233 0.228 0.396 0.228s0.314-0.087 0.396-0.228c0.154-0.266 0.44-0.432 0.746-0.432s0.592 0.165 0.746 0.432c0.082 0.141 0.233 0.228 0.396 0.228s0.315-0.087 0.396-0.228c0.154-0.266 0.44-0.432 0.746-0.432s0.592 0.165 0.746 0.432c0.082 0.141 0.233 0.228 0.396 0.228s0.314-0.087 0.396-0.228c0.154-0.266 0.44-0.432 0.746-0.432 0.476 0 0.863 0.387 0.863 0.863s-0.387 0.863-0.863 0.863c-0.306 0-0.592-0.165-0.746-0.432-0.082-0.141-0.233-0.228-0.396-0.228s-0.315 0.087-0.396 0.228c-0.155 0.266-0.441 0.432-0.746 0.432s-0.592-0.165-0.746-0.432c-0.082-0.141-0.233-0.228-0.396-0.228s-0.314 0.087-0.396 0.228c-0.154 0.266-0.44 0.432-0.746 0.432s-0.592-0.165-0.746-0.432c-0.082-0.141-0.233-0.228-0.396-0.228s-0.315 0.087-0.396 0.228c-0.154 0.266-0.44 0.432-0.746 0.432s-0.592-0.165-0.746-0.432c-0.082-0.141-0.233-0.228-0.396-0.228s-0.314 0.087-0.396 0.228c-0.155 0.266-0.441 0.432-0.746 0.432s-0.592-0.165-0.746-0.432c-0.082-0.141-0.233-0.228-0.396-0.228s-0.314 0.087-0.396 0.228c-0.090 0.156-0.226 0.276-0.383 0.35-1.077-0.429-2.261-0.668-3.504-0.67-0.005-0.037-0.008-0.074-0.008-0.112 0-0.476 0.387-0.863 0.863-0.863zM5.967 16.646h1.758c-0.181 0.225-0.35 0.458-0.506 0.7h-1.252v-0.7zM4.077 19.345h-1.547c-0.238 0-0.437 0.183-0.457 0.42-0.025 0.297-0.278 0.53-0.576 0.53-0.319 0-0.579-0.26-0.579-0.579 0-0.173 0.077-0.336 0.21-0.447 0.105-0.087 0.166-0.216 0.166-0.353s-0.061-0.266-0.166-0.353c-0.134-0.111-0.21-0.273-0.21-0.447 0-0.319 0.26-0.579 0.579-0.579 0.299 0 0.552 0.233 0.576 0.53 0.020 0.238 0.218 0.42 0.457 0.42h1.548v0.857h-0zM4.233 17.572h-1.346c-0.169-0.426-0.528-0.755-0.967-0.888-0.020-0.058-0.030-0.12-0.030-0.184 0-0.319 0.26-0.579 0.579-0.579 0.299 0 0.552 0.233 0.577 0.53 0.020 0.238 0.218 0.42 0.457 0.42h1.547v0.473h-0.326c-0.196 0-0.372 0.088-0.491 0.226zM7.419 23.99h-2.029c-0.001-0.016-0.002-0.032-0.002-0.049 0-0.56 0.456-1.016 1.016-1.016s1.016 0.456 1.016 1.016c0 0.016-0.001 0.032-0.002 0.049zM21.555 23.99h-1.596c-0.001-0.016-0.002-0.032-0.002-0.049 0-0.56 0.456-1.016 1.016-1.016 0.28 0 0.534 0.114 0.718 0.298-0.089 0.222-0.139 0.464-0.139 0.718-0 0.016 0.001 0.032 0.002 0.049zM20.974 22.009c-1.066 0-1.933 0.867-1.933 1.933 0 0.016 0.001 0.032 0.002 0.049h-10.707c0-0.016 0.002-0.032 0.002-0.049 0-0.905-0.626-1.667-1.467-1.876-0.009-0.141-0.014-0.283-0.014-0.425 0-0.047 0.001-0.093 0.002-0.14l4.688 1.592c0.316 0.107 0.639 0.16 0.959 0.16 0.604 0 1.197-0.189 1.71-0.556 0.783-0.561 1.232-1.436 1.232-2.399 0-0.345-0.059-0.683-0.176-1.005-0.086-0.238-0.349-0.361-0.587-0.275s-0.361 0.349-0.275 0.587c0.080 0.222 0.121 0.455 0.121 0.693 0 0.664-0.31 1.267-0.85 1.654s-1.211 0.486-1.84 0.273l-6.847-2.325v-1.637h7.502c0.23 0 0.456 0.038 0.673 0.114 0.239 0.084 0.5-0.042 0.584-0.281s-0.042-0.5-0.281-0.584c-0.315-0.11-0.643-0.166-0.976-0.166h-4.156c1.462-1.903 3.867-3.149 6.582-3.149 4.447 0 8.065 3.339 8.065 7.444 0 0.147-0.005 0.293-0.014 0.438-0.277 0.077-0.529 0.214-0.741 0.396-0.338-0.29-0.777-0.466-1.256-0.466zM24.501 23.99h-2.029c-0.001-0.016-0.002-0.032-0.002-0.049 0-0.56 0.456-1.016 1.016-1.016s1.016 0.456 1.016 1.016c0 0.016-0.001 0.032-0.002 0.049zM24.788 22.222c-0.073 0.038-0.144 0.079-0.211 0.125-0.204-0.14-0.436-0.241-0.685-0.294 0.007-0.137 0.011-0.274 0.011-0.412 0-0.169-0.007-0.336-0.018-0.503h0.903v1.084zM26.683 23.941c0 0.016-0.001 0.032-0.002 0.049h-1.264c0-0.016 0.002-0.032 0.002-0.049 0-0.325-0.081-0.631-0.223-0.9 0.141-0.074 0.301-0.116 0.471-0.116 0.56 0 1.016 0.456 1.016 1.016zM26.683 19.732c0 0.27-0.219 0.489-0.489 0.489h-2.423c-0.070-0.377-0.165-0.746-0.287-1.104h3.199v0.615zM30.372 18.2h-7.266c-0.176-0.361-0.379-0.709-0.606-1.041h1.945c0.253 0 0.458-0.205 0.458-0.458s-0.205-0.458-0.458-0.458h-2.671c-0.438-0.481-0.934-0.916-1.477-1.295 0.023 0.001 0.046 0.002 0.070 0.002 0.423 0 0.827-0.152 1.143-0.418 0.316 0.265 0.72 0.418 1.143 0.418s0.827-0.152 1.143-0.418c0.316 0.265 0.72 0.418 1.143 0.418s0.827-0.152 1.143-0.418c0.316 0.265 0.72 0.418 1.143 0.418s0.827-0.152 1.143-0.418c0.153 0.128 0.326 0.23 0.512 0.301l-0.683 1.411h-1.613c-0.253 0-0.458 0.205-0.458 0.458s0.205 0.458 0.458 0.458h3.789v1.041z"></path>
        </symbol>
        <symbol id="icon-close" viewBox="0 0 32 32">
            <path
                d="M17.876 16.009l13.717-13.717c0.529-0.511 0.544-1.355 0.033-1.884s-1.355-0.544-1.884-0.033c-0.011 0.011-0.022 0.022-0.033 0.033l-13.717 13.717-13.717-13.717c-0.529-0.511-1.373-0.497-1.884 0.033-0.499 0.516-0.499 1.335 0 1.852l13.717 13.717-13.717 13.717c-0.52 0.52-0.52 1.364 0 1.884s1.364 0.52 1.884 0l13.717-13.717 13.717 13.717c0.529 0.511 1.373 0.497 1.884-0.033 0.499-0.516 0.499-1.335 0-1.852l-13.717-13.717z"></path>
        </symbol>
        <symbol id="icon-delivery" viewBox="0 0 32 32">
            <path
                d="M6.134 23.058l0.384 0.913c0.271-0.111 0.552-0.193 0.841-0.245l-0.179-0.973c-0.358 0.064-0.709 0.166-1.045 0.304z"></path>
            <path
                d="M3.508 25.511l0.9 0.431c0.311-0.635 0.785-1.179 1.375-1.577l-0.564-0.816c-0.733 0.496-1.323 1.172-1.71 1.962z"></path>
            <path
                d="M31 25.233c0.001-0.851-0.317-1.672-0.891-2.306l-0.745 0.659c0.296 0.326 0.498 0.724 0.587 1.153h-3.45c-0.082 0-0.163 0.020-0.236 0.058s-0.134 0.094-0.18 0.162l-1.851 2.745h-1.232v-1.483c0.001-0.917 0.37-1.796 1.026-2.445s1.546-1.013 2.474-1.014h1c0.492-0.001 0.973 0.142 1.382 0.412l0.554-0.823c-0.432-0.284-0.922-0.469-1.436-0.542v-1.518c0-0.131-0.053-0.257-0.146-0.349s-0.221-0.145-0.354-0.145c-0.53-0.001-1.039-0.209-1.414-0.58s-0.586-0.873-0.586-1.397v-1.977h1.5c0.133 0 0.26-0.052 0.354-0.145s0.146-0.218 0.146-0.349v-3.459c0-0.131-0.053-0.257-0.146-0.349s-0.221-0.145-0.354-0.145h-0.882c-0.209 0-0.417 0.029-0.618 0.084v-0.578c0-0.112-0.039-0.221-0.11-0.309l-1.636-2.021c0.214-0.357 0.291-0.779 0.217-1.188s-0.295-0.778-0.622-1.039c-0.327-0.261-0.738-0.398-1.158-0.384s-0.821 0.176-1.13 0.457c-0.309 0.282-0.505 0.664-0.552 1.076s0.057 0.829 0.294 1.171c0.237 0.343 0.591 0.59 0.998 0.696s0.838 0.064 1.215-0.118l1.482 1.832v0.624l-2.198-0.724c-0.144-0.049-0.295-0.074-0.448-0.073h-4.124l-2.374-2.737c0.199-0.136 0.361-0.318 0.473-0.53s0.171-0.447 0.171-0.686v-0.189l0.724-0.358c0.063-0.031 0.119-0.076 0.164-0.13s0.077-0.117 0.096-0.185 0.022-0.138 0.010-0.208c-0.012-0.069-0.038-0.135-0.077-0.193l-0.821-1.218c0.114-0.022 0.217-0.082 0.291-0.171s0.114-0.2 0.114-0.314c-0.001-0.786-0.317-1.54-0.88-2.096s-1.325-0.869-2.12-0.869c-0.942 0-1.813 0.267-2.462 0.976-0.281 0.307-0.494 0.669-0.625 1.063s-0.177 0.81-0.136 1.222l0.107 1.057c0.045 0.456 0.265 0.877 0.616 1.177v9.332c-0 0.347 0.093 0.688 0.269 0.988h-0.769c-0.17-0-0.339 0.029-0.5 0.085v-6.51c-0-0.393-0.159-0.77-0.44-1.048s-0.662-0.434-1.060-0.435h-6c-0.398 0-0.779 0.157-1.060 0.435s-0.439 0.655-0.44 1.048v2.471h1v-0.988h7v4.942h-7v-2.965h-1v4.035c-0 0.231 0.082 0.456 0.232 0.633s0.359 0.298 0.589 0.339l4.679 0.841v1.16c-0.424 0.097-0.838 0.232-1.237 0.405h-2.763c-0.133 0-0.26 0.052-0.354 0.145s-0.146 0.218-0.146 0.349v2.346c-0.653 1.084-0.999 2.323-1 3.585 0 0.131 0.053 0.257 0.146 0.349s0.221 0.145 0.354 0.145h2.292c0.299 0.73 0.811 1.355 1.472 1.795s1.439 0.675 2.236 0.675 1.575-0.235 2.236-0.675c0.661-0.44 1.173-1.065 1.472-1.795h8.407c0.348-0 0.693-0.072 1.011-0.211s0.604-0.343 0.839-0.597l0.535-0.582v1.39c0 0.131 0.053 0.257 0.146 0.349s0.221 0.145 0.354 0.145h1.036c0.44 0.754 1.12 1.343 1.933 1.676s1.715 0.391 2.566 0.166c0.851-0.225 1.602-0.721 2.138-1.412s0.827-1.536 0.827-2.407c0-0.379-0.055-0.755-0.163-1.118 0.051-0.046 0.092-0.102 0.12-0.165s0.042-0.131 0.042-0.199zM21.5 7.689c0-0.147 0.044-0.29 0.126-0.412s0.2-0.217 0.337-0.273 0.288-0.071 0.433-0.042c0.145 0.029 0.279 0.099 0.384 0.203s0.176 0.236 0.205 0.38c0.029 0.144 0.014 0.293-0.043 0.428s-0.153 0.251-0.276 0.333c-0.123 0.081-0.268 0.125-0.417 0.125-0.199-0-0.389-0.078-0.53-0.217s-0.22-0.327-0.22-0.524zM14.347 25.233c-0.49-0.001-0.959-0.193-1.305-0.535s-0.541-0.806-0.542-1.29c0-0.485 0.124-0.939 0.451-1.312 0.292-0.332 0.694-0.549 1.134-0.612 0.531-0.075 1.017-0.337 1.369-0.737s0.545-0.913 0.546-1.444c0-0.065-0.013-0.129-0.038-0.189s-0.062-0.115-0.109-0.16c0.085-0.176 0.134-0.366 0.144-0.56s-0.018-0.389-0.084-0.573h1.358l-2.194 5.638c-0.053 0.136-0.079 0.28-0.078 0.426v1.349h-0.653zM16 24.244h2.5c0.107 0 0.212 0.034 0.298 0.097s0.149 0.152 0.18 0.254 0.028 0.21-0.008 0.31c-0.036 0.1-0.104 0.185-0.193 0.244-0.126 0.054-0.261 0.083-0.399 0.083h-2.379v-0.988zM19.88 24.158c-0.099-0.23-0.256-0.431-0.455-0.586s-0.434-0.256-0.684-0.297l2.071-4.927c0.184-0.438 0.256-0.914 0.209-1.386s-0.211-0.925-0.477-1.32c-0.266-0.394-0.627-0.718-1.050-0.941s-0.895-0.341-1.375-0.341h-2.119v-0.784l0.146 0.145c0.046 0.046 0.102 0.082 0.162 0.107s0.126 0.038 0.191 0.038h5.086c-0.080 0.224-0.105 0.463-0.072 0.698s0.122 0.459 0.261 0.652c0.139 0.194 0.322 0.352 0.535 0.461s0.45 0.166 0.69 0.166h0.001c-0.326 0.427-0.502 0.948-0.501 1.483v3.834c-0.001 0.262-0.106 0.513-0.293 0.699l-2.327 2.3zM23 14.854c-0.099 0-0.196-0.029-0.278-0.083s-0.146-0.131-0.184-0.222c-0.038-0.090-0.048-0.19-0.028-0.286s0.067-0.184 0.137-0.253c0.070-0.069 0.159-0.116 0.256-0.135s0.197-0.009 0.289 0.028c0.091 0.037 0.169 0.101 0.224 0.182s0.084 0.177 0.084 0.275c-0 0.131-0.053 0.257-0.147 0.349s-0.221 0.145-0.353 0.145zM26.5 12.383v2.471h-1v-2.317c0.19-0.101 0.402-0.153 0.618-0.154h0.382zM24.5 14.36c0-0.237-0.057-0.471-0.168-0.682s-0.27-0.392-0.466-0.529c-0.196-0.137-0.422-0.225-0.66-0.258s-0.48-0.008-0.706 0.071v-0.882l2 0.659v1.621zM17.5 11.889h4v0.988h-4.793l-2.854-2.82-0.707 0.699 1.854 1.832v1.772h-3v-5.93h2.27l2.85 3.287c0.047 0.054 0.105 0.098 0.171 0.127s0.137 0.045 0.209 0.045zM11.78 2.656c0.457-0.499 1.064-0.65 1.72-0.65 0.443 0.001 0.874 0.146 1.224 0.415s0.601 0.644 0.712 1.068h-1.937c-0.133 0-0.26 0.052-0.354 0.145s-0.146 0.218-0.146 0.349v1.174c-0.001 0.206-0.081 0.403-0.225 0.552s-0.339 0.237-0.547 0.248c-0.208 0.010-0.411-0.059-0.569-0.192s-0.258-0.322-0.279-0.527l-0.107-1.057c-0.029-0.275 0.001-0.553 0.088-0.815s0.23-0.504 0.419-0.708zM12.187 6.947c0.481-0 0.941-0.189 1.281-0.525s0.531-0.791 0.531-1.266v-0.68h1c0 0.098 0.029 0.193 0.084 0.274l0.686 1.017-0.494 0.244c-0.083 0.041-0.153 0.104-0.201 0.182s-0.075 0.168-0.075 0.26v0.494c-0 0.131-0.053 0.257-0.147 0.349s-0.221 0.145-0.353 0.145h-2.5v-0.504c0.062 0.006 0.125 0.010 0.187 0.010zM12 15.843v-0.494h6.119c0.315 0 0.626 0.077 0.904 0.224s0.515 0.359 0.69 0.619c0.175 0.259 0.283 0.557 0.313 0.867s-0.017 0.623-0.137 0.911l-2.222 5.287h-1.438l2.239-5.753c0.029-0.075 0.039-0.156 0.030-0.235s-0.038-0.156-0.084-0.222c-0.046-0.066-0.107-0.12-0.179-0.158s-0.152-0.057-0.233-0.057h-5c-0.265-0-0.519-0.105-0.707-0.29s-0.293-0.437-0.293-0.699zM10.5 17.82h4c0.133 0 0.26 0.052 0.354 0.145s0.146 0.218 0.146 0.349c0 0.131-0.053 0.257-0.146 0.349s-0.221 0.145-0.354 0.145h-4c-0.133 0-0.26-0.052-0.354-0.145s-0.146-0.218-0.146-0.349c0-0.131 0.053-0.257 0.146-0.349s0.221-0.145 0.354-0.145zM2 10.901v-0.494c0-0.131 0.053-0.257 0.147-0.349s0.221-0.145 0.353-0.145h6c0.133 0 0.26 0.052 0.353 0.145s0.146 0.218 0.147 0.349v0.494h-7zM2 17.82h7v0.988h-1.955l-5.045-0.907v-0.082zM3.618 22.267c-0.217 0.174-0.423 0.361-0.618 0.559v-0.559h0.618zM7.5 29.68c-0.526-0.002-1.042-0.14-1.498-0.4s-0.835-0.633-1.099-1.082h1.276c0.365 0.318 0.835 0.494 1.322 0.494s0.957-0.176 1.322-0.494h1.276c-0.265 0.449-0.644 0.822-1.1 1.082s-0.972 0.398-1.498 0.4zM20.725 26.724c-0.141 0.153-0.312 0.275-0.503 0.358s-0.398 0.127-0.607 0.127h-17.594c0.108-1.29 0.633-2.512 1.499-3.483s2.025-1.642 3.306-1.91c0.129-0.028 0.261-0.042 0.393-0.042h3.281v-0.988h-3v-0.988h7.394c-0.085 0.188-0.216 0.352-0.383 0.475s-0.361 0.204-0.568 0.233c-0.678 0.096-1.299 0.431-1.748 0.942-0.484 0.551-0.696 1.24-0.696 1.96-0 0.67 0.242 1.317 0.683 1.825h-4.183v0.988h10.379c0.53-0.004 1.037-0.211 1.414-0.579l3.121-3.085c0.374-0.372 0.584-0.874 0.586-1.398v-3.834c0-0.306 0.097-0.605 0.276-0.856s0.432-0.44 0.724-0.542v1.892c0.001 0.701 0.252 1.378 0.71 1.913s1.092 0.893 1.79 1.011v1.030c-0.31 0-0.628-0.019-0.937 0.021-0.935 0.092-1.818 0.47-2.526 1.082s-1.203 1.427-1.419 2.331l-1.394 1.517zM26.768 25.727h0.025l0.603 0.597c0.105 0.104 0.164 0.245 0.164 0.392 0 0.11-0.033 0.217-0.095 0.308s-0.149 0.162-0.252 0.204c-0.102 0.042-0.215 0.053-0.324 0.032s-0.209-0.074-0.287-0.152l-0.46-0.455 0.624-0.925zM27 29.68c-0.433-0.001-0.861-0.095-1.255-0.274s-0.743-0.44-1.025-0.765c0.079-0.038 0.147-0.096 0.196-0.169l0.433-0.642c0.241 0.349 0.588 0.613 0.992 0.752s0.841 0.147 1.25 0.023c0.408-0.125 0.766-0.375 1.019-0.715s0.39-0.751 0.39-1.174c0.001-0.293-0.065-0.582-0.193-0.846-0.023-0.049-0.049-0.096-0.076-0.142h1.098c0.16 0.447 0.208 0.926 0.142 1.396s-0.245 0.917-0.522 1.304c-0.277 0.387-0.644 0.703-1.070 0.921s-0.899 0.332-1.379 0.332z"></path>
            <path d="M4 12.877h-1v2.965h1v-2.965z"></path>
        </symbol>
        <symbol id="icon-facebook" viewBox="0 0 15 32">
            <path
                d="M3.881 31.324v-14.677h-3.881v-5.284h3.881v-4.513c0-3.547 2.292-6.804 7.575-6.804 2.139 0 3.72 0.205 3.72 0.205l-0.125 4.935c0 0-1.613-0.016-3.373-0.016-1.905 0-2.21 0.878-2.21 2.335v3.858h5.734l-0.249 5.284h-5.485v14.677h-5.587z"></path>
        </symbol>
        <symbol id="icon-filters" viewBox="0 0 28 32">
            <path
                d="M12.249 25h-11.237c-0.559 0-1.012 0.448-1.012 1s0.454 1 1.012 1h11.237c0.469 2.282 2.511 4 4.959 4s4.49-1.718 4.959-4h5.163c0.559 0 1.012-0.448 1.012-1s-0.453-1-1.012-1h-5.163c-0.469-2.282-2.511-4-4.959-4s-4.49 1.718-4.959 4zM20.245 26c0 1.657-1.359 3-3.037 3s-3.037-1.343-3.037-3c0-1.657 1.359-3 3.037-3s3.037 1.343 3.037 3zM2.127 15h-1.115c-0.559 0-1.012 0.448-1.012 1s0.453 1 1.012 1h1.114c0.469 2.282 2.51 4 4.959 4s4.49-1.718 4.959-4h15.286c0.559 0 1.012-0.448 1.012-1s-0.453-1-1.012-1h-15.286c-0.469-2.282-2.51-4-4.959-4s-4.49 1.718-4.959 4zM10.123 16c0 1.657-1.359 3-3.037 3s-3.037-1.343-3.037-3c0-1.657 1.359-3 3.037-3s3.037 1.343 3.037 3zM16.298 5h-15.286c-0.559 0-1.012 0.448-1.012 1s0.453 1 1.012 1h15.286c0.469 2.282 2.51 4 4.959 4s4.49-1.718 4.959-4h1.114c0.559 0 1.012-0.448 1.012-1s-0.454-1-1.012-1h-1.114c-0.469-2.282-2.51-4-4.959-4s-4.49 1.718-4.959 4zM24.294 6c0 1.657-1.359 3-3.037 3s-3.037-1.343-3.037-3c0-1.657 1.359-3 3.037-3s3.037 1.343 3.037 3z"></path>
        </symbol>
        <symbol id="icon-instagram" viewBox="0 0 32 32">
            <path
                d="M15.596 10.445c-2.865 0-5.202 2.338-5.202 5.202s2.338 5.202 5.202 5.202 5.202-2.338 5.202-5.202c0-2.865-2.338-5.202-5.202-5.202zM31.199 15.648c0-2.154 0.020-4.289-0.101-6.439-0.121-2.498-0.691-4.714-2.517-6.541-1.83-1.83-4.043-2.396-6.541-2.517-2.154-0.121-4.289-0.101-6.439-0.101-2.154 0-4.289-0.019-6.439 0.101-2.498 0.121-4.714 0.691-6.541 2.517-1.83 1.83-2.396 4.043-2.517 6.541-0.121 2.154-0.101 4.289-0.101 6.439s-0.019 4.289 0.101 6.439c0.121 2.498 0.691 4.714 2.517 6.541 1.83 1.83 4.043 2.396 6.541 2.517 2.154 0.121 4.289 0.102 6.439 0.102 2.154 0 4.289 0.020 6.439-0.102 2.498-0.121 4.714-0.691 6.541-2.517 1.83-1.83 2.396-4.043 2.517-6.541 0.125-2.15 0.101-4.285 0.101-6.439zM15.596 23.652c-4.429 0-8.004-3.575-8.004-8.004s3.575-8.004 8.004-8.004 8.004 3.575 8.004 8.004c0 4.429-3.575 8.004-8.004 8.004zM23.928 9.185c-1.034 0-1.869-0.835-1.869-1.869s0.835-1.869 1.869-1.869c1.034 0 1.869 0.835 1.869 1.869 0 0.246-0.048 0.489-0.142 0.716s-0.232 0.433-0.405 0.607c-0.174 0.174-0.38 0.311-0.607 0.405s-0.47 0.142-0.716 0.142z"></path>
        </symbol>
        <symbol id="icon-location" viewBox="0 0 29 32">
            <path stroke-linejoin="round" stroke-linecap="round" stroke-miterlimit="4"
                stroke-width="2.4"
                d="M18.4 13.648c0-2.21-1.791-4.001-3.999-4.001-2.21 0-4.001 1.791-4.001 4.001 0 2.208 1.791 3.999 4.001 3.999 2.208 0 3.999-1.791 3.999-3.999z"></path>
            <path stroke-linejoin="round" stroke-linecap="round" stroke-miterlimit="4"
                stroke-width="2.4"
                d="M14.399 30.448c-1.918 0-11.999-8.163-11.999-16.699 0-6.683 5.371-12.101 11.999-12.101s12.001 5.419 12.001 12.101c0 8.536-10.083 16.699-12.001 16.699z"></path>
        </symbol>
        <symbol id="icon-message" viewBox="0 0 35 32">
            <path stroke-linejoin="round" stroke-linecap="round" stroke-miterlimit="4"
                stroke-width="2.4"
                d="M27.044 11.010l-7.109 5.781c-1.343 1.066-3.233 1.066-4.576 0l-7.169-5.781"></path>
            <path stroke-linejoin="round" stroke-linecap="round" stroke-miterlimit="4"
                stroke-width="2.4"
                d="M25.454 30.448c4.866 0.014 8.146-3.985 8.146-8.899v-10.989c0-4.914-3.28-8.912-8.146-8.912h-15.708c-4.866 0-8.146 3.998-8.146 8.912v10.989c0 4.914 3.28 8.912 8.146 8.899h15.708z"></path>
        </symbol>
        <symbol id="icon-minus" viewBox="0 0 32 32">
            <path
                d="M30.667 14.507h-29.333c-0.736 0-1.333 0.588-1.333 1.314s0.597 1.315 1.333 1.315h29.333c0.736 0 1.333-0.588 1.333-1.315s-0.597-1.314-1.333-1.314z"></path>
        </symbol>
        <symbol id="icon-phone" viewBox="0 0 32 32">
            <path stroke-linejoin="round" stroke-linecap="round" stroke-miterlimit="4"
                stroke-width="2.1818" d="M19.423 2.225c5.383 0.598 9.636 4.845 10.24 10.228"></path>
            <path stroke-linejoin="round" stroke-linecap="round" stroke-miterlimit="4"
                stroke-width="2.1818" d="M19.423 7.379c2.576 0.5 4.589 2.515 5.091 5.091"></path>
            <path stroke-linejoin="round" stroke-linecap="round" stroke-miterlimit="4"
                stroke-width="2.1818"
                d="M14.591 16.73c5.802 5.801 7.118-0.91 10.813 2.782 3.561 3.561 5.61 4.274 1.096 8.785-0.565 0.454-4.156 5.919-16.777-6.698-12.622-12.619-7.161-16.214-6.706-16.779 4.523-4.524 5.226-2.465 8.788 1.096 3.693 3.693-3.015 5.014 2.787 10.815z"></path>
        </symbol>
        <symbol id="icon-pizza" viewBox="0 0 31 32">
            <path
                d="M31.108 31.134c-0.167 0.165-0.414 0.22-0.635 0.141l-25.383-9.050c-0.882 0.539-2 0.665-3.026 0.241-1.703-0.705-2.514-2.665-1.809-4.368 1.663-4.015 4.065-7.61 7.138-10.683s6.668-5.475 10.683-7.138c0.417-0.173 0.849-0.254 1.275-0.254 1.312 0 2.56 0.778 3.093 2.064 0.358 0.865 0.324 1.796-0.018 2.596l8.831 25.82c0.076 0.222 0.018 0.468-0.149 0.633zM8.934 22.297l2.69 0.959c0.316-0.336 0.47-0.8 0.408-1.268-0.054-0.413-0.266-0.779-0.596-1.033s-0.739-0.363-1.152-0.309c-0.412 0.054-0.779 0.266-1.032 0.596-0.233 0.304-0.344 0.675-0.318 1.054zM21.315 2.553c-0.447-1.080-1.691-1.595-2.771-1.148-7.825 3.241-13.919 9.335-17.16 17.16-0.217 0.523-0.217 1.1 0 1.623s0.624 0.931 1.148 1.148c0.523 0.217 1.1 0.217 1.623 0s0.931-0.624 1.148-1.148c1.387-3.349 3.391-6.347 5.954-8.911s5.561-4.567 8.911-5.954c1.080-0.447 1.595-1.69 1.148-2.771zM26.744 21.084c-0.055 0.001-0.111 0.005-0.166 0.012-0.412 0.054-0.779 0.266-1.032 0.596s-0.363 0.739-0.309 1.151c0.112 0.852 0.896 1.453 1.748 1.341 0.263-0.035 0.509-0.137 0.72-0.292l-0.961-2.809zM28.111 25.082c-0.298 0.162-0.625 0.27-0.967 0.315-1.52 0.201-2.919-0.873-3.119-2.393-0.097-0.736 0.099-1.466 0.551-2.055 0.435-0.567 1.059-0.938 1.762-1.051l-1.215-3.552-1.397 1.072c-0.268 0.205-0.651 0.155-0.857-0.113s-0.155-0.651 0.113-0.857l1.724-1.323-3.159-9.237c-0.265 0.23-0.57 0.423-0.912 0.565-6.476 2.683-11.521 7.727-14.203 14.203-0.093 0.225-0.209 0.434-0.343 0.627l1.636 0.583c0.057-0.493 0.246-0.963 0.556-1.367 0.452-0.589 1.106-0.967 1.843-1.064 0.123-0.016 0.246-0.024 0.369-0.024 0.608 0 1.196 0.199 1.686 0.575 0.589 0.452 0.967 1.106 1.064 1.843 0.087 0.661-0.067 1.316-0.414 1.858l7.597 2.709 0.288-0.695c0.098-0.235 0.325-0.377 0.565-0.377 0.078 0 0.157 0.015 0.234 0.047 0.312 0.129 0.46 0.487 0.331 0.799l-0.264 0.638 8.111 2.892-1.579-4.616z"></path>
            <path
                d="M6.6 14.915c-0.002 0.003-0.007 0.011-0.009 0.014-0.187 0.281-0.566 0.356-0.847 0.169s-0.356-0.565-0.171-0.846c0.117-0.18 0.313-0.278 0.513-0.278 0.113 0 0.228 0.031 0.33 0.097 0.284 0.183 0.366 0.561 0.184 0.844z"></path>
            <path
                d="M5.671 16.434c-0.596 1.044-1.131 2.137-1.591 3.248-0.129 0.312-0.487 0.46-0.798 0.331s-0.46-0.487-0.331-0.798c0.48-1.158 1.038-2.297 1.659-3.386 0.113-0.198 0.319-0.308 0.531-0.308 0.103 0 0.207 0.026 0.302 0.080 0.293 0.167 0.395 0.54 0.228 0.834z"></path>
            <path
                d="M19.124 23.489c-0.121 0.016-0.244 0.024-0.366 0.024-1.388 0-2.572-1.039-2.753-2.417-0.2-1.52 0.873-2.919 2.393-3.119 0.121-0.016 0.244-0.024 0.366-0.024 1.388 0 2.572 1.039 2.753 2.417 0.2 1.52-0.874 2.919-2.393 3.119zM20.305 20.529c-0.102-0.772-0.764-1.355-1.542-1.355-0.068 0-0.138 0.004-0.206 0.014-0.852 0.112-1.453 0.896-1.341 1.748 0.102 0.772 0.764 1.354 1.542 1.354 0.068 0 0.138-0.005 0.206-0.014 0.852-0.112 1.453-0.896 1.341-1.748z"></path>
            <path
                d="M18.965 15.887c-0.121 0.016-0.244 0.024-0.366 0.024-1.388 0-2.572-1.039-2.753-2.417-0.097-0.736 0.099-1.466 0.551-2.055s1.106-0.967 1.843-1.064c0.121-0.016 0.244-0.024 0.365-0.024 1.388 0 2.572 1.039 2.753 2.417 0.2 1.52-0.873 2.919-2.393 3.119zM20.146 12.928c-0.102-0.772-0.764-1.355-1.542-1.355-0.068 0-0.138 0.005-0.206 0.014-0.413 0.054-0.779 0.266-1.032 0.596s-0.363 0.739-0.309 1.152c0.102 0.772 0.764 1.355 1.542 1.355 0.068 0 0.138-0.005 0.206-0.014 0.852-0.112 1.453-0.896 1.341-1.748z"></path>
            <path
                d="M14.934 18.419l-1.878 0.247c-0.334 0.044-0.642-0.192-0.686-0.526s0.191-0.642 0.526-0.686l1.878-0.247c0.027-0.004 0.054-0.005 0.081-0.005 0.302 0 0.565 0.224 0.605 0.531 0.044 0.335-0.191 0.642-0.526 0.686z"></path>
            <path
                d="M13.982 13.909l-0.166 1.26c-0.044 0.335-0.351 0.57-0.686 0.526s-0.57-0.351-0.526-0.686l0.166-1.26c0.040-0.308 0.303-0.531 0.605-0.531 0.027 0 0.053 0.002 0.080 0.005 0.335 0.044 0.57 0.351 0.526 0.686z"></path>
        </symbol>
        <symbol id="icon-plus" viewBox="0 0 30 32">
            <path
                d="M28.952 13.76h-12.19v-12.191c0-0.841-0.683-1.524-1.524-1.524s-1.524 0.683-1.524 1.524v12.191h-12.191c-0.841 0-1.524 0.683-1.524 1.524s0.683 1.524 1.524 1.524h12.191v12.19c0 0.841 0.683 1.524 1.524 1.524s1.524-0.683 1.524-1.524v-12.19h12.19c0.841 0 1.524-0.683 1.524-1.524s-0.683-1.524-1.524-1.524z"></path>
        </symbol>
        <symbol id="icon-quote-close" viewBox="0 0 38 32">
            <path
                d="M30.052 15.352c-2.041 0.185-3.71 0.974-5.009 2.365s-1.948 3.154-1.948 5.287c0 2.319 0.696 4.22 2.087 5.704 1.391 1.391 3.154 2.087 5.287 2.087 2.412 0 4.359-0.881 5.844-2.644 1.391-1.762 2.087-4.499 2.087-8.209 0-7.142-2.365-13.31-7.096-18.504-0.928-0.928-1.994-1.391-3.2-1.391-1.020 0-1.901 0.371-2.644 1.113-0.742 0.649-1.113 1.438-1.113 2.365 0 1.020 0.371 1.901 1.113 2.643 2.412 2.504 3.942 5.565 4.591 9.183zM6.957 15.352c-2.041 0.185-3.71 0.974-5.009 2.365s-1.948 3.154-1.948 5.287c0 2.319 0.696 4.22 2.087 5.704 1.391 1.391 3.154 2.087 5.287 2.087 2.412 0 4.359-0.881 5.843-2.644 1.391-1.762 2.087-4.499 2.087-8.209 0-7.142-2.365-13.31-7.096-18.504-0.928-0.928-1.994-1.391-3.2-1.391-1.020 0-1.901 0.371-2.643 1.113-0.742 0.649-1.113 1.438-1.113 2.365 0 1.020 0.371 1.901 1.113 2.643 2.412 2.504 3.942 5.565 4.591 9.183z"></path>
        </symbol>
        <symbol id="icon-quote-open" viewBox="0 0 38 32">
            <path
                d="M8.348 15.352c2.041 0.185 3.71 0.974 5.009 2.365s1.948 3.154 1.948 5.287c0 2.319-0.696 4.22-2.087 5.704-1.391 1.391-3.154 2.087-5.287 2.087-2.412 0-4.359-0.881-5.843-2.644-1.391-1.762-2.087-4.499-2.087-8.209 0-7.142 2.365-13.31 7.096-18.504 0.928-0.928 1.994-1.391 3.2-1.391 1.020 0 1.901 0.371 2.643 1.113 0.742 0.649 1.113 1.438 1.113 2.365 0 1.020-0.371 1.901-1.113 2.643-2.412 2.504-3.942 5.565-4.591 9.183zM31.444 15.352c2.040 0.185 3.71 0.974 5.009 2.365s1.948 3.154 1.948 5.287c0 2.319-0.696 4.22-2.087 5.704-1.391 1.391-3.154 2.087-5.287 2.087-2.412 0-4.359-0.881-5.844-2.644-1.391-1.762-2.087-4.499-2.087-8.209 0-7.142 2.365-13.31 7.096-18.504 0.928-0.928 1.994-1.391 3.2-1.391 1.020 0 1.901 0.371 2.643 1.113 0.742 0.649 1.113 1.438 1.113 2.365 0 1.020-0.371 1.901-1.113 2.643-2.412 2.504-3.942 5.565-4.591 9.183z"></path>
        </symbol>
        <symbol id="icon-sandvich" viewBox="0 0 31 32">
            <path
                d="M29.724 4.714h-1.043v-1.043c0-0.864-0.7-1.564-1.564-1.564h-1.242l-0.755-1.509c-0.175-0.355-0.537-0.578-0.933-0.577h-0.721c-0.576 0-1.043 0.467-1.043 1.043v1.043h-5.736c-0.864 0-1.564 0.7-1.564 1.564v1.043h-1.043c-0.864 0-1.564 0.7-1.564 1.564v1.043c0 0.576 0.467 1.043 1.043 1.043h0.055l0.61 5.388-2.512-0.59c-0.127-0.195-0.261-0.388-0.41-0.578l-0.887-3.816c-0.055-0.236-0.265-0.403-0.507-0.404h-2.996c-1.414-1.246-3.085-1.809-4.345-1.438l-0.766-0.834c-0.289-0.316-0.744-0.42-1.141-0.261-0.398 0.154-0.661 0.537-0.66 0.964v22.961c0.001 0.858 0.696 1.553 1.554 1.554h25.563c0.265-0 0.488-0.199 0.518-0.463l2.555-22.483h0.056c0.576 0 1.043-0.467 1.043-1.043v-1.043c-0-0.864-0.7-1.564-1.564-1.564zM23.467 1.064h0.721l0.521 1.043h-1.242v-1.043zM16.166 3.671c0-0.288 0.234-0.521 0.522-0.521h10.43c0.288 0 0.522 0.233 0.522 0.521v1.043h-11.473v-1.043zM14.706 14.935l0.033 0.006 0.421 0.1 0.283 2.959c-0.819-0.58-1.799-0.889-2.802-0.883 0.193-0.92 0.091-1.878-0.292-2.736l2.358 0.554zM15.725 19.548l0.007 0.006c0.189 0.175 0.368 0.36 0.537 0.554 0.62 0.692 1.077 1.516 1.334 2.409 0.088 0.311 0.134 0.633 0.135 0.956l-4.871-5.312c1.083 0.121 2.092 0.611 2.857 1.388zM10.229 12.92v-0.001c1.125 1.293 1.649 2.847 1.401 3.891l-5.307-5.786c1.071-0.239 2.699 0.513 3.906 1.896zM9.491 9.408l0.417 1.776c-0.419-0.327-0.876-0.603-1.361-0.821-0.197-0.333-0.418-0.652-0.66-0.955h1.603zM6.869 9.796h0.002c0.043 0.050 0.079 0.104 0.12 0.156-0.49-0.045-0.982 0.038-1.43 0.24l-2.144-2.338c1.048 0.015 2.416 0.753 3.452 1.941zM21.857 29.961c-0.081 0.186-0.264 0.306-0.466 0.306h-19.837c-0.282 0-0.511-0.229-0.511-0.511l-0.009-22.956 19.993 21.802c0.012 0.016 0.025 0.031 0.038 0.046l0.699 0.762c0.138 0.148 0.175 0.364 0.094 0.55zM18.629 24.444c0.095-0.311 0.144-0.635 0.144-0.961 0.274 0.231 0.529 0.483 0.764 0.755 0.291 0.333 0.55 0.693 0.772 1.075 0.305 0.512 0.52 1.072 0.637 1.656l-2.316-2.525zM26.651 30.267h-3.799c0.195-0.54 0.071-1.145-0.321-1.564l-0.525-0.574c0.103-0.873-0.038-1.757-0.407-2.555h5.585l-0.533 4.693zM27.303 24.531h-6.258c-0.214-0.343-0.454-0.67-0.718-0.977-0.513-0.596-1.116-1.108-1.786-1.519-0.306-0.966-0.813-1.857-1.487-2.614-0.156-0.177-0.313-0.343-0.477-0.502l-0.412-4.345c-0.021-0.222-0.182-0.406-0.399-0.458l-0.462-0.11-0.11-0.947h13.412l-1.304 11.473zM28.726 12.015h-13.649l-0.413-3.65h14.476l-0.415 3.65zM30.246 7.322h-16.687v-1.043c0-0.288 0.233-0.521 0.521-0.521h15.644c0.288 0 0.521 0.233 0.521 0.521v1.043z"></path>
            <path
                d="M22.116 22.966c0.030 0 0.059-0.004 0.088-0.005 0.008 0 0.016 0.005 0.023 0.005 0.026-0.002 0.052-0.005 0.078-0.011 0.816-0.055 1.569-0.462 2.061-1.115 0.657-0.923 0.845-2.1 0.508-3.182-0.073-0.27-0.139-0.535-0.203-0.791-0.407-1.631-0.795-3.169-2.443-3.238-0.017 0-0.032-0.003-0.049-0.003s-0.041-0.004-0.064-0.004c-1.843 0-3.343 1.872-3.343 4.172s1.5 4.172 3.343 4.172zM22.52 15.744c0.539 0.212 0.776 0.918 1.14 2.376 0.065 0.261 0.133 0.534 0.209 0.811 0.25 0.769 0.128 1.61-0.33 2.276-0.166 0.218-0.379 0.396-0.623 0.521-0.018-0.896-0.194-1.783-0.521-2.617-0.052-0.163-0.104-0.32-0.15-0.469-0.303-0.987 0.052-2.266 0.275-2.897zM21.399 15.822c-0.339 1.007-0.392 2.089-0.151 3.124 0.048 0.156 0.101 0.319 0.156 0.487 0.261 0.796 0.574 1.758 0.446 2.466-1.143-0.178-2.034-1.502-2.034-3.105 0-1.385 0.665-2.56 1.583-2.972z"></path>
            <path
                d="M2.76 27.444l-0.369 0.369c-0.136 0.131-0.19 0.325-0.142 0.507s0.19 0.325 0.372 0.372c0.182 0.048 0.376-0.007 0.507-0.142l0.369-0.369c0.198-0.205 0.195-0.53-0.006-0.731s-0.526-0.204-0.731-0.006z"></path>
            <path
                d="M7.746 23.933c0.204-0.204 0.204-0.534 0-0.738s-0.534-0.204-0.738 0l-0.369 0.369c-0.132 0.132-0.183 0.324-0.135 0.504s0.189 0.321 0.369 0.369c0.18 0.048 0.372-0.003 0.504-0.135l0.369-0.369z"></path>
            <path
                d="M3.129 22.598l-0.369 0.369c-0.136 0.131-0.19 0.325-0.142 0.507s0.19 0.325 0.372 0.372c0.182 0.048 0.376-0.007 0.507-0.142l0.369-0.369c0.198-0.205 0.195-0.53-0.006-0.731s-0.526-0.204-0.731-0.006z"></path>
            <path
                d="M3.129 18.947l-0.369 0.369c-0.136 0.131-0.19 0.325-0.142 0.507s0.19 0.325 0.372 0.372c0.182 0.048 0.376-0.007 0.507-0.142l0.369-0.369c0.198-0.205 0.195-0.53-0.006-0.731s-0.526-0.204-0.731-0.006z"></path>
            <path
                d="M7.822 27.444l-0.369 0.369c-0.136 0.131-0.19 0.325-0.142 0.507s0.19 0.325 0.372 0.372 0.376-0.007 0.507-0.142l0.369-0.369c0.198-0.205 0.195-0.53-0.006-0.731s-0.526-0.204-0.731-0.006z"></path>
            <path
                d="M11.625 27.444l-0.369 0.369c-0.136 0.131-0.19 0.325-0.142 0.507s0.19 0.325 0.372 0.372c0.182 0.048 0.376-0.007 0.507-0.142l0.369-0.369c0.198-0.205 0.195-0.53-0.006-0.731s-0.526-0.204-0.731-0.006z"></path>
        </symbol>
        <symbol id="icon-search" viewBox="0 0 32 32">
            <path stroke-linejoin="round" stroke-linecap="round" stroke-miterlimit="4"
                stroke-width="2.2857"
                d="M28.579 14.72c0 7.477-6.132 13.538-13.697 13.538s-13.697-6.061-13.697-13.538c0-7.477 6.132-13.538 13.697-13.538s13.697 6.061 13.697 13.538z"></path>
            <path stroke-linejoin="round" stroke-linecap="round" stroke-miterlimit="4"
                stroke-width="2.2857" d="M24.409 24.839l5.37 5.294"></path>
        </symbol>
        <symbol id="icon-stopwatch" viewBox="0 0 31 32">
            <path
                d="M29.032 11.804l0.911-0.911c0.263-0.263 0.408-0.613 0.408-0.985s-0.145-0.722-0.408-0.985l-1.043-1.043c-0.263-0.263-0.613-0.408-0.985-0.408s-0.722 0.145-0.985 0.408l-0.911 0.911c-1.202-0.828-2.566-1.436-4.034-1.768v-1.346h0.554c0.75 0 1.361-0.61 1.361-1.361v-1.893c0-0.75-0.61-1.361-1.361-1.361h-6.264c-0.75 0-1.361 0.61-1.361 1.361v1.893c0 0.75 0.61 1.361 1.361 1.361h0.554v1.35c-1.461 0.332-2.819 0.939-4.016 1.764l-0.911-0.911c-0.263-0.263-0.613-0.408-0.985-0.408s-0.722 0.145-0.986 0.408l-1.043 1.043c-0.543 0.543-0.543 1.427 0 1.971l0.161 0.161h-4.304c-0.335 0-0.607 0.272-0.607 0.607s0.272 0.607 0.607 0.607h4.749c-0.452 0.729-0.827 1.51-1.112 2.334h-7.776c-0.335 0-0.607 0.272-0.607 0.607s0.272 0.607 0.607 0.607h7.429c-0.171 0.753-0.269 1.534-0.287 2.334h-3.863c-0.335 0-0.607 0.272-0.607 0.607s0.272 0.607 0.607 0.607h3.899c0.066 0.803 0.213 1.584 0.434 2.334h-5.183c-0.335 0-0.607 0.272-0.607 0.607s0.272 0.607 0.607 0.607h5.615c1.766 4.204 5.926 7.164 10.765 7.164 6.435 0 11.67-5.235 11.67-11.67 0-2.449-0.759-4.724-2.053-6.603zM27.788 8.738c0.043-0.043 0.093-0.053 0.127-0.053s0.083 0.009 0.127 0.053l1.043 1.043c0.043 0.043 0.053 0.093 0.053 0.127s-0.009 0.083-0.053 0.127l-0.798 0.798c-0.398-0.465-0.831-0.899-1.297-1.297l0.798-0.798zM16.128 4.316v-1.893c0-0.081 0.066-0.146 0.146-0.146h6.264c0.081 0 0.146 0.066 0.146 0.146v1.893c0 0.081-0.066 0.146-0.146 0.146h-6.264c-0.081 0-0.146-0.066-0.146-0.146zM18.043 5.677h2.728v1.139c-0.445-0.052-0.897-0.079-1.355-0.079-0.464 0-0.922 0.028-1.373 0.081l-0-1.141zM9.747 9.781l1.043-1.043c0.043-0.043 0.093-0.053 0.127-0.053s0.083 0.009 0.127 0.053l0.798 0.798c-0.465 0.398-0.899 0.831-1.297 1.297l-0.798-0.798c-0.070-0.070-0.070-0.184 0-0.254zM19.416 28.863c-5.765 0-10.456-4.69-10.456-10.456s4.691-10.456 10.456-10.456c5.765 0 10.456 4.69 10.456 10.456s-4.69 10.456-10.456 10.456z"></path>
            <path
                d="M23.423 13.541l-2.87 2.87c-0.336-0.192-0.724-0.302-1.137-0.302-1.267 0-2.298 1.031-2.298 2.298s1.031 2.298 2.298 2.298 2.298-1.031 2.298-2.298c0-0.414-0.11-0.802-0.302-1.137l2.87-2.87c0.237-0.237 0.237-0.622 0-0.859s-0.621-0.237-0.859 0zM19.416 19.491c-0.598 0-1.084-0.486-1.084-1.084s0.486-1.084 1.084-1.084 1.084 0.486 1.084 1.084c0 0.598-0.486 1.084-1.084 1.084z"></path>
            <path
                d="M19.416 10.536c0.16 0 0.316-0.065 0.429-0.178s0.178-0.27 0.178-0.429c0-0.16-0.065-0.316-0.178-0.429s-0.27-0.178-0.429-0.178c-0.16 0-0.316 0.065-0.429 0.178s-0.178 0.27-0.178 0.429c0 0.16 0.065 0.316 0.178 0.429s0.27 0.178 0.429 0.178z"></path>
            <path
                d="M19.416 26.279c-0.16 0-0.316 0.065-0.429 0.178s-0.178 0.27-0.178 0.429c0 0.16 0.065 0.316 0.178 0.429s0.27 0.178 0.429 0.178c0.16 0 0.316-0.064 0.429-0.178s0.178-0.27 0.178-0.429c0-0.16-0.065-0.316-0.178-0.429s-0.27-0.178-0.429-0.178z"></path>
            <path
                d="M13.42 11.805c-0.16 0-0.316 0.065-0.429 0.178s-0.178 0.27-0.178 0.429c0 0.16 0.065 0.316 0.178 0.43s0.27 0.177 0.429 0.177c0.16 0 0.316-0.064 0.429-0.177s0.178-0.27 0.178-0.43c0-0.16-0.065-0.316-0.178-0.429s-0.269-0.178-0.429-0.178z"></path>
            <path
                d="M25.411 23.796c-0.16 0-0.316 0.065-0.43 0.178s-0.177 0.27-0.177 0.429c0 0.16 0.064 0.316 0.177 0.429s0.27 0.178 0.43 0.178c0.16 0 0.316-0.065 0.429-0.178s0.178-0.27 0.178-0.429c0-0.16-0.065-0.316-0.178-0.429s-0.27-0.178-0.429-0.178z"></path>
            <path
                d="M13.42 23.796c-0.16 0-0.316 0.065-0.429 0.178s-0.178 0.27-0.178 0.429c0 0.16 0.065 0.316 0.178 0.429s0.27 0.178 0.429 0.178c0.16 0 0.316-0.065 0.429-0.178s0.178-0.27 0.178-0.429c0-0.16-0.065-0.316-0.178-0.429s-0.269-0.178-0.429-0.178z"></path>
            <path
                d="M10.937 17.8c-0.16 0-0.316 0.065-0.429 0.178s-0.178 0.27-0.178 0.429c0 0.16 0.064 0.316 0.178 0.429s0.269 0.178 0.429 0.178c0.16 0 0.316-0.064 0.429-0.178s0.178-0.27 0.178-0.429c0-0.16-0.065-0.316-0.178-0.429s-0.27-0.178-0.429-0.178z"></path>
            <path
                d="M28.324 17.978c-0.113-0.113-0.27-0.178-0.429-0.178s-0.316 0.065-0.429 0.178c-0.113 0.113-0.178 0.27-0.178 0.429s0.065 0.316 0.178 0.429c0.113 0.113 0.269 0.178 0.429 0.178s0.316-0.065 0.429-0.178 0.178-0.27 0.178-0.429c0-0.16-0.065-0.316-0.178-0.429z"></path>
            <path
                d="M0.607 21.699c-0.16 0-0.316 0.064-0.429 0.177s-0.178 0.27-0.178 0.43c0 0.16 0.065 0.316 0.178 0.429s0.27 0.178 0.429 0.178 0.316-0.065 0.429-0.178c0.113-0.113 0.178-0.27 0.178-0.429s-0.065-0.317-0.178-0.43c-0.113-0.113-0.27-0.177-0.429-0.177z"></path>
            <path
                d="M27.716 16.564c0.321-0.096 0.504-0.434 0.409-0.755-0.429-1.44-1.221-2.766-2.291-3.833s-2.397-1.857-3.838-2.283c-0.321-0.095-0.659 0.088-0.754 0.41s0.088 0.659 0.41 0.754c2.562 0.757 4.547 2.738 5.31 5.298 0.078 0.264 0.32 0.434 0.582 0.434 0.057 0 0.116-0.008 0.174-0.025z"></path>
        </symbol>
        <symbol id="icon-telegram" viewBox="0 0 32 32">
            <path
                d="M19.878 30.57c-0.553 0-1.064-0.295-1.313-0.767l-4.355-8.231c-0.239-0.452-0.198-0.993 0.106-1.41l7.031-9.005-9.531 6.642c-0.442 0.288-1.014 0.324-1.492 0.1l-8.709-4.114c-0.522-0.248-0.841-0.765-0.809-1.317 0.031-0.552 0.408-1.034 0.957-1.224l27.882-9.707c0.535-0.184 1.139-0.064 1.545 0.32 0.405 0.381 0.537 0.953 0.339 1.46l-10.272 26.347c-0.203 0.519-0.712 0.875-1.296 0.904-0.026 0.001-0.054 0.003-0.081 0.003z"></path>
        </symbol>
        <symbol id="icon-time" viewBox="0 0 30 32">
            <path
                d="M16.114 2.392v-1.461c0-0.247-0.098-0.484-0.273-0.658s-0.412-0.273-0.658-0.273c-0.247 0-0.484 0.098-0.658 0.273s-0.273 0.411-0.273 0.658v1.469c-7.317 0.508-13.117 6.62-13.117 14.064 0 7.775 6.327 14.102 14.104 14.102s14.104-6.327 14.104-14.102c0-7.482-5.858-13.619-13.228-14.073zM15.238 28.705c-6.75 0-12.241-5.491-12.241-12.24 0-6.75 5.491-12.24 12.241-12.24s12.241 5.491 12.241 12.24c0 6.748-5.491 12.24-12.241 12.24z"></path>
            <path
                d="M10.458 24.917c-3.040-1.724-4.928-4.963-4.928-8.452 0-0.258-0.208-0.466-0.466-0.466s-0.466 0.208-0.466 0.466c0 3.824 2.070 7.373 5.401 9.263 0.107 0.061 0.235 0.077 0.354 0.044s0.22-0.112 0.281-0.219c0.061-0.108 0.077-0.235 0.044-0.354s-0.112-0.22-0.219-0.281z"></path>
            <path
                d="M12.997 26.194c-0.18-0.047-0.359-0.099-0.537-0.155-0.117-0.035-0.243-0.023-0.351 0.034s-0.189 0.154-0.226 0.27-0.027 0.242 0.028 0.351c0.055 0.109 0.151 0.192 0.266 0.231 0.194 0.062 0.388 0.118 0.587 0.169 0.12 0.031 0.246 0.013 0.353-0.050s0.183-0.165 0.214-0.285c0.015-0.059 0.019-0.121 0.010-0.181s-0.029-0.119-0.060-0.171c-0.031-0.053-0.072-0.099-0.121-0.135s-0.104-0.063-0.164-0.078z"></path>
            <path
                d="M27.254 7.25c0.175 0.174 0.412 0.272 0.659 0.272s0.484-0.099 0.658-0.274c0.174-0.175 0.272-0.412 0.272-0.659s-0.099-0.484-0.274-0.658l-2.418-2.412c-0.087-0.086-0.189-0.155-0.302-0.202s-0.234-0.071-0.356-0.070c-0.122 0-0.244 0.024-0.356 0.071s-0.215 0.116-0.302 0.202c-0.174 0.175-0.272 0.412-0.272 0.659s0.099 0.484 0.273 0.658l2.418 2.412z"></path>
            <path
                d="M16.114 16.291v-7.445c0-0.247-0.098-0.484-0.273-0.658s-0.412-0.273-0.658-0.273c-0.247 0-0.484 0.098-0.658 0.273s-0.273 0.412-0.273 0.658v7.847c0 0.257 0.134 0.501 0.32 0.677l2.725 2.547c0.18 0.169 0.41 0.254 0.639 0.254 0.125 0 0.248-0.026 0.362-0.076s0.216-0.124 0.3-0.216c0.354-0.374 0.323-0.963-0.051-1.316l-2.433-2.271z"></path>
        </symbol>
        <symbol id="icon-twitter" viewBox="0 0 40 32">
            <path
                d="M38.638 3.785c-1.421 0.613-2.967 1.054-4.56 1.226 1.654-0.982 2.892-2.534 3.483-4.365-1.552 0.923-3.252 1.57-5.024 1.913-0.741-0.792-1.637-1.423-2.632-1.854s-2.069-0.652-3.153-0.649c-4.388 0-7.917 3.557-7.917 7.922 0 0.613 0.074 1.226 0.195 1.816-6.57-0.344-12.43-3.483-16.326-8.288-0.71 1.212-1.082 2.593-1.077 3.998 0 2.749 1.398 5.173 3.529 6.598-1.256-0.049-2.483-0.395-3.58-1.008v0.098c0 3.849 2.721 7.039 6.348 7.773-0.681 0.177-1.381 0.267-2.085 0.269-0.515 0-1.003-0.051-1.495-0.121 1.003 3.139 3.924 5.419 7.402 5.493-2.721 2.131-6.129 3.385-9.83 3.385-0.664 0-1.277-0.023-1.913-0.098 3.51 2.252 7.676 3.552 12.161 3.552 14.562 0 22.53-12.063 22.53-22.534 0-0.344 0-0.687-0.023-1.031 1.542-1.128 2.893-2.526 3.97-4.096z"></path>
        </symbol>
        <symbol id="icon-icon-star" viewBox="0 0 30 32">
            <path
                d="M-0.447 11.659c0.103-0.319 0.379-0.552 0.71-0.601l9.309-1.357 4.163-8.46c0.148-0.301 0.454-0.492 0.789-0.492s0.641 0.191 0.789 0.492l4.163 8.46 9.309 1.357c0.331 0.048 0.607 0.281 0.71 0.6s0.017 0.67-0.223 0.905l-6.736 6.586 1.59 9.299c0.056 0.331-0.079 0.666-0.35 0.863-0.153 0.112-0.335 0.168-0.517 0.168-0.14 0-0.281-0.034-0.409-0.101l-8.326-4.39-8.326 4.39c-0.296 0.156-0.656 0.13-0.926-0.067s-0.407-0.532-0.35-0.863l1.59-9.299-6.737-6.586c-0.24-0.234-0.326-0.585-0.223-0.904z"></path>
        </symbol>
    </defs>
</svg>